<svg xmlns="http://www.w3.org/2000/svg" xmlns:xlink="http://www.w3.org/1999/xlink" width="143" height="145" fill="none"><defs><path id="c" fill-rule="evenodd" d="M112.075 117.733V55.2159l11.807 10.3275c.347.3039.8.4554 1.258.4211.459-.0343.884-.2515 1.184-.6039.301-.3524.45-.8111.416-1.2752-.034-.4641-.248-.8955-.596-1.1995L73.0347 16.4234l-.038-.0303c-.0356-.028-.0725-.0531-.1099-.0784-.014-.0095-.028-.019-.042-.0288-.0516-.0357-.0896-.0604-.1357-.0851-.0491-.0262-.0999-.0491-.1519-.0687-.0122-.005-.0242-.01-.036-.0148-.0405-.0169-.0793-.0329-.1213-.0457-.04-.0122-.0785-.0198-.1167-.0274-.0136-.0027-.0271-.0054-.0407-.0083-.0136-.0029-.0284-.0066-.0438-.0105-.0429-.0106-.0906-.0225-.1325-.0225h-.1601c-.0542-.0039-.1086-.0039-.1627 0-.054.0049-.1075.0141-.1601.0275-.0569.0076-.1131.0196-.1682.0357l-.1492.0577c-.0554.021-.1098.0448-.1628.0715-.0334.0179-.0655.0387-.0971.0593-.012.0078-.0239.0156-.0358.0231-.0434.0275-.1058.0715-.1546.1127-.0138.0075-.0265.0168-.038.0275L17.66 62.8859c-.3351.3079-.5381.7364-.5657 1.1938-.0275.4575.1226.9078.4183 1.2547.2957.3469.7135.5629 1.1643.602.4508.039.8988-.102 1.2484-.393l11.8063-10.3302v59.0078h-46.2215V94.9291c5.62372 8.0219 12.63643 8.6589 14.695484 8.6589.320116 0 .520865-.016.577835-.022.457601-.039.881161-.26 1.177511-.615.29636-.356.44122-.816.40273-1.279-.0385-.464-.25719-.893-.60798-1.193-.35079-.3-.804941-.447-1.262538-.408-.387937.03-9.494962.549-14.983042-12.3365V75.6372C-8.86618 83.659-1.85347 84.2938.205584 84.2938c.320116 0 .520865-.0137.577835-.0192.448431-.0512.859501-.2774 1.145841-.6308.28634-.3533.42539-.8058.38759-1.2613-.03779-.4555-.24946-.8782-.59-1.1781-.34055-.3-.783138-.4536-1.233708-.4282-.387937.0303-9.494962.5497-14.983042-12.3336V56.3509c5.62372 8.019 12.63643 8.6566 14.695484 8.6566.320116 0 .520865-.0165.577835-.022.457601-.039.881161-.2605 1.177511-.6159.29636-.3553.44122-.8154.40273-1.2789-.0385-.4636-.25719-.8926-.60798-1.1929-.35079-.3002-.804941-.4469-1.262538-.4079-.387937.0302-9.494962.5496-14.983042-12.3364V37.0618c5.62372 8.0218 12.63643 8.6566 14.695484 8.6566.320116 0 .520865 0 .577835-.0193.448431-.0511.859501-.2774 1.145841-.6307.28634-.3533.42539-.8058.38759-1.2614-.03779-.4555-.24946-.8781-.59-1.1781-.34055-.2999-.783138-.4535-1.233708-.4281-.387937.0302-9.494962.5496-14.983042-12.3336v-.0385c.0092-.2363-.0287-.472-.1116-.693-.0829-.2211-.209-.4229-.3708-.5934-.1617-.1704-.3558-.306-.5706-.3987-.2147-.0926-.4457-.1404-.6792-.1404-.2334 0-.4644.0478-.6792.1404-.2147.0927-.4088.2283-.5705.3987-.1618.1705-.2879.3723-.3708.5934-.0829.221-.1208.4567-.1116.693v.0385c-5.4827 12.864-14.5653 12.3666-14.9804 12.3336-.4294.0072-.841.1757-1.1548.4728-.3139.2971-.5076.7016-.5438 1.1352-.0361.4336.0879.8654.3481 1.2116.2602.3462.6381.5822 1.0603.6623.0158 0 .0441.0016.0841.0039.0974.0056.2642.0153.491.0153 2.059 0 9.0718-.6376 14.6955-8.6566v12.0918c-5.4827 12.8639-14.5653 12.3665-14.9804 12.3363-.4576-.039-.9117.1077-1.2625.408-.3508.3002-.5695.7292-.608 1.1928-.0385.4635.1064.9236.4028 1.2789.2963.3554.7199.5769 1.1775.6159.0158 0 .0441.0019.0841.0045.0974.0065.2642.0175.491.0175 2.059 0 9.0718-.6376 14.6955-8.6566v12.0918c-5.4827 12.8612-14.5653 12.3665-14.9804 12.3335-.4505-.0253-.8931.1283-1.2337.4282-.3405.2999-.5522.7226-.59 1.1781-.0378.4555.1013.908.3876 1.2614.2864.3533.6974.5796 1.1459.6307.0158 0 .0441.0017.0841.004.0974.0056.2642.0152.491.0152 2.059 0 9.0718-.6375 14.6955-8.6565v12.0917c-5.4827 12.8635-14.5653 12.3665-14.9804 12.3365-.4576-.039-.9117.108-1.2625.408s-.5695.729-.608 1.193c-.0385.463.1064.923.4028 1.279.2963.355.7199.576 1.1775.615.0158 0 .0441.002.0841.005.0974.006.2642.017.491.017 2.059 0 9.0718-.637 14.6955-8.6589v19.2919h-42.3123c-.2276 0-.4531.045-.6634.134-.2103.088-.4014.217-.5624.38-.1609.163-.2886.357-.3757.57-.0872.213-.132.441-.132.672 0 .231.0448.459.132.672.0871.213.2148.407.3757.57.161.163.3521.292.5624.38.2103.089.4358.134.6634.134h42.3204v9.827c.0177.454.208.883.5309 1.197.3229.314.7534.49 1.2013.49.4479 0 .8784-.176 1.2013-.49.3229-.314.5131-.743.5308-1.197v-9.805h46.2134v9.827c.0177.454.2079.883.5308 1.197.3229.314.7534.49 1.2013.49.4479 0 .8784-.176 1.2013-.49.3229-.314.5132-.743.5309-1.197v-9.827h46.5307c.4598 0 .9007-.185 1.2258-.514.3251-.33.5077-.776.5077-1.242 0-.466-.1826-.912-.5077-1.242-.3251-.329-.766-.514-1.2258-.514H35.1959V52.553c.0008-.1173-.0111-.2343-.0353-.349l36.7428-32.1531L108.638 52.215c-.024.1147-.036.2317-.035.349v61.657H98.4595c-.2277 0-.4531.045-.6634.134-.2103.088-.4014.217-.5624.38-.161.163-.2887.357-.3758.57-.0871.213-.1319.441-.1319.672 0 .231.0448.459.1319.672.0871.213.2148.407.3758.57.161.163.3521.292.5624.38.2103.089.4357.134.6634.134h10.1515v9.827c.018.454.208.883.531 1.197.323.314.753.49 1.201.49.448 0 .878-.176 1.201-.49.323-.314.514-.743.531-1.197v-9.827Z" clip-rule="evenodd"/></defs><path fill="#035" d="M0 0h143v145H0z"/><g clip-path="url(#a)"><g fill="#fff" clip-path="url(#b)"><use xlink:href="#c" fill-rule="evenodd" clip-rule="evenodd"/><use xlink:href="#c" fill-rule="evenodd" clip-rule="evenodd"/><path d="M50.933 96.2166v-3.8984l25.1019-33.5649v-.3594H52.0072V53.749h30.5011v4.0643l-24.6497 33.399v.3594h25.5542v4.6449H50.933Z"/><path d="M60.3702 96.2166v-3.8984l25.1019-33.5649v-.3594H61.4444V53.749h30.5011v4.0643l-24.6496 33.399v.3594h25.5542v4.6449H60.3702Z"/></g></g><defs><clipPath id="a"><path fill="#fff" d="M0 0h111v113H0z" transform="translate(16 16)"/></clipPath><clipPath id="b"><path fill="#fff" d="M0 0h188.745v113.247H0z" transform="translate(-62 16)"/></clipPath></defs></svg>