<svg width="134" height="31" viewBox="0 0 134 31" fill="none" xmlns="http://www.w3.org/2000/svg">
<path d="M55.9098 26.9091V13.3033H58.7864V18.917H64.6261V13.3033H67.496V26.9091H64.6261V21.2887H58.7864V26.9091H55.9098Z" fill="white"/>
<path d="M74.4252 27.1084C73.3932 27.1084 72.5008 26.8892 71.7479 26.4507C70.9994 26.0078 70.4214 25.3922 70.0139 24.6038C69.6064 23.811 69.4027 22.892 69.4027 21.8468C69.4027 20.7927 69.6064 19.8714 70.0139 19.0831C70.4214 18.2903 70.9994 17.6747 71.7479 17.2362C72.5008 16.7933 73.3932 16.5719 74.4252 16.5719C75.4571 16.5719 76.3474 16.7933 77.0959 17.2362C77.8488 17.6747 78.429 18.2903 78.8364 19.0831C79.2439 19.8714 79.4477 20.7927 79.4477 21.8468C79.4477 22.892 79.2439 23.811 78.8364 24.6038C78.429 25.3922 77.8488 26.0078 77.0959 26.4507C76.3474 26.8892 75.4571 27.1084 74.4252 27.1084ZM74.4385 24.9161C74.9079 24.9161 75.2999 24.7832 75.6144 24.5175C75.9288 24.2473 76.1658 23.8797 76.3252 23.4146C76.4891 22.9496 76.571 22.4203 76.571 21.8268C76.571 21.2334 76.4891 20.7041 76.3252 20.2391C76.1658 19.774 75.9288 19.4064 75.6144 19.1362C75.2999 18.8661 74.9079 18.731 74.4385 18.731C73.9646 18.731 73.566 18.8661 73.2426 19.1362C72.9238 19.4064 72.6824 19.774 72.5185 20.2391C72.3591 20.7041 72.2793 21.2334 72.2793 21.8268C72.2793 22.4203 72.3591 22.9496 72.5185 23.4146C72.6824 23.8797 72.9238 24.2473 73.2426 24.5175C73.566 24.7832 73.9646 24.9161 74.4385 24.9161Z" fill="white"/>
<path d="M84.118 13.3033V26.9091H81.2879V13.3033H84.118Z" fill="white"/>
<path d="M86.3851 26.9091V16.7047H89.2152V26.9091H86.3851ZM87.8068 15.3893C87.3861 15.3893 87.0251 15.2498 86.7239 14.9708C86.4272 14.6873 86.2788 14.3485 86.2788 13.9543C86.2788 13.5646 86.4272 13.2302 86.7239 12.9512C87.0251 12.6677 87.3861 12.526 87.8068 12.526C88.2276 12.526 88.5863 12.6677 88.883 12.9512C89.1842 13.2302 89.3348 13.5646 89.3348 13.9543C89.3348 14.3485 89.1842 14.6873 88.883 14.9708C88.5863 15.2498 88.2276 15.3893 87.8068 15.3893Z" fill="white"/>
<path d="M95.2425 27.0752C94.4675 27.0752 93.7655 26.8759 93.1365 26.4773C92.512 26.0742 92.016 25.483 91.6484 24.7035C91.2852 23.9195 91.1036 22.9584 91.1036 21.8202C91.1036 20.6509 91.2919 19.6788 91.6683 18.9037C92.0448 18.1242 92.5453 17.5418 93.1698 17.1565C93.7987 16.7667 94.4874 16.5719 95.2359 16.5719C95.8072 16.5719 96.2833 16.6693 96.6642 16.8642C97.0495 17.0546 97.3596 17.2938 97.5943 17.5817C97.8335 17.8651 98.0151 18.1441 98.1391 18.4187H98.2254V13.3033H101.049V26.9091H98.2587V25.2748H98.1391C98.0062 25.5583 97.818 25.8395 97.5744 26.1185C97.3352 26.3931 97.023 26.6212 96.6376 26.8028C96.2568 26.9844 95.7917 27.0752 95.2425 27.0752ZM96.1394 24.8231C96.5956 24.8231 96.9809 24.699 97.2954 24.451C97.6142 24.1986 97.8578 23.8465 98.0261 23.3947C98.1989 22.9429 98.2852 22.4137 98.2852 21.8069C98.2852 21.2001 98.2011 20.6731 98.0328 20.2258C97.8645 19.7784 97.6209 19.433 97.302 19.1894C96.9831 18.9458 96.5956 18.824 96.1394 18.824C95.6743 18.824 95.2824 18.9502 94.9635 19.2027C94.6446 19.4551 94.4032 19.805 94.2394 20.2523C94.0755 20.6997 93.9935 21.2179 93.9935 21.8069C93.9935 22.4004 94.0755 22.9252 94.2394 23.3814C94.4077 23.8332 94.649 24.1875 94.9635 24.4444C95.2824 24.6968 95.6743 24.8231 96.1394 24.8231Z" fill="white"/>
<path d="M106.286 27.1018C105.635 27.1018 105.054 26.9888 104.545 26.7629C104.036 26.5326 103.633 26.1938 103.336 25.7465C103.044 25.2947 102.897 24.7323 102.897 24.0591C102.897 23.4921 103.002 23.016 103.21 22.6307C103.418 22.2454 103.701 21.9354 104.06 21.7006C104.419 21.4659 104.826 21.2887 105.282 21.1691C105.743 21.0496 106.226 20.9654 106.731 20.9167C107.324 20.8547 107.803 20.7971 108.166 20.744C108.529 20.6864 108.792 20.6022 108.956 20.4915C109.12 20.3808 109.202 20.2169 109.202 19.9999V19.96C109.202 19.5393 109.069 19.2137 108.804 18.9834C108.542 18.7531 108.17 18.638 107.687 18.638C107.178 18.638 106.773 18.7509 106.472 18.9768C106.17 19.1982 105.971 19.4773 105.874 19.8139L103.256 19.6013C103.389 18.9812 103.65 18.4453 104.04 17.9936C104.43 17.5374 104.933 17.1875 105.548 16.9439C106.168 16.6959 106.886 16.5719 107.701 16.5719C108.268 16.5719 108.81 16.6383 109.328 16.7712C109.851 16.904 110.314 17.11 110.717 17.389C111.124 17.668 111.445 18.0268 111.68 18.4652C111.915 18.8993 112.032 19.4197 112.032 20.0265V26.9091H109.348V25.494H109.269C109.105 25.8129 108.885 26.0942 108.611 26.3378C108.336 26.5769 108.006 26.7652 107.621 26.9025C107.236 27.0353 106.791 27.1018 106.286 27.1018ZM107.096 25.1486C107.512 25.1486 107.88 25.0666 108.199 24.9028C108.518 24.7345 108.768 24.5086 108.95 24.2251C109.131 23.9417 109.222 23.6206 109.222 23.2618V22.1789C109.133 22.2365 109.012 22.2897 108.857 22.3384C108.706 22.3827 108.536 22.4248 108.345 22.4646C108.155 22.5001 107.964 22.5333 107.774 22.5643C107.583 22.5908 107.411 22.6152 107.256 22.6373C106.923 22.6861 106.633 22.7636 106.385 22.8699C106.137 22.9762 105.945 23.1201 105.807 23.3017C105.67 23.4789 105.601 23.7003 105.601 23.966C105.601 24.3514 105.741 24.6459 106.02 24.8496C106.303 25.0489 106.662 25.1486 107.096 25.1486Z" fill="white"/>
<path d="M114.175 26.9091V25.2217L119.171 19.0366V18.9635H114.348V16.7047H122.579V18.545L117.888 24.5772V24.6503H122.751V26.9091H114.175Z" fill="white"/>
<path d="M129.274 27.1084C128.224 27.1084 127.321 26.8958 126.563 26.4706C125.81 26.041 125.23 25.4343 124.823 24.6503C124.415 23.862 124.211 22.9297 124.211 21.8534C124.211 20.8037 124.415 19.8825 124.823 19.0897C125.23 18.2969 125.804 17.6791 126.543 17.2362C127.287 16.7933 128.16 16.5719 129.161 16.5719C129.834 16.5719 130.461 16.6804 131.041 16.8974C131.626 17.11 132.135 17.4311 132.569 17.8607C133.007 18.2903 133.348 18.8306 133.592 19.4817C133.836 20.1283 133.957 20.8857 133.957 21.7538V22.5311H125.341V20.7772H131.293C131.293 20.3697 131.205 20.0087 131.028 19.6943C130.85 19.3798 130.605 19.134 130.29 18.9569C129.98 18.7753 129.619 18.6845 129.207 18.6845C128.778 18.6845 128.397 18.7841 128.065 18.9834C127.737 19.1783 127.48 19.4418 127.294 19.774C127.108 20.1018 127.013 20.4671 127.008 20.8702V22.5377C127.008 23.0426 127.101 23.4789 127.287 23.8465C127.478 24.2141 127.746 24.4975 128.091 24.6968C128.437 24.8961 128.846 24.9958 129.32 24.9958C129.635 24.9958 129.923 24.9515 130.184 24.8629C130.445 24.7743 130.669 24.6415 130.855 24.4643C131.041 24.2871 131.183 24.0701 131.28 23.8132L133.898 23.986C133.765 24.6149 133.492 25.1641 133.08 25.6336C132.673 26.0986 132.146 26.4618 131.499 26.7231C130.857 26.98 130.115 27.1084 129.274 27.1084Z" fill="white"/>
<path fill-rule="evenodd" clip-rule="evenodd" d="M46.9523 10.5775L50.1368 13.3631C50.2306 13.445 50.3527 13.4859 50.4763 13.4766C50.5999 13.4674 50.7148 13.4088 50.7957 13.3138C50.8766 13.2187 50.9169 13.095 50.9078 12.9698C50.8987 12.8446 50.8409 12.7283 50.747 12.6463L36.4221 0.114189L36.4119 0.106036C36.4023 0.0984826 36.3923 0.0917147 36.3822 0.0848747C36.3785 0.0823174 36.3747 0.07975 36.3709 0.0771277C36.357 0.0674916 36.3468 0.0608205 36.3343 0.0541493C36.3211 0.0470993 36.3074 0.0409099 36.2933 0.0356184C36.29 0.0342824 36.2868 0.0329464 36.2836 0.0316273C36.2727 0.0270917 36.2622 0.0227566 36.2509 0.0193112C36.2401 0.0160331 36.2297 0.0139632 36.2194 0.011914C36.2158 0.011183 36.2121 0.0104547 36.2085 0.00967514C36.2048 0.00889027 36.2008 0.00789763 36.1966 0.00686222C36.1851 0.00398625 36.1722 0.000780297 36.1609 0.000780297H36.1177C36.1031 -0.000260099 36.0884 -0.000260099 36.0738 0.000780297C36.0593 0.00210673 36.0448 0.00458508 36.0307 0.00819266C36.0153 0.0102597 36.0002 0.0134806 35.9853 0.0178287L35.945 0.0333947C35.9301 0.0390555 35.9154 0.045488 35.9011 0.0526669C35.8921 0.0575063 35.8835 0.063126 35.875 0.0686769C35.8717 0.0707778 35.8685 0.0728688 35.8653 0.074904C35.8536 0.0823163 35.8368 0.0941761 35.8236 0.105295C35.8199 0.107336 35.8164 0.109825 35.8133 0.112707L21.4862 12.6463C21.3959 12.7293 21.3411 12.8449 21.3337 12.9683C21.3262 13.0917 21.3667 13.2131 21.4465 13.3067C21.5262 13.4002 21.6389 13.4585 21.7605 13.469C21.8821 13.4796 22.003 13.4415 22.0972 13.3631L25.2817 10.5767V26.4926H12.8146V21.2891C14.3315 23.4528 16.223 23.6247 16.7784 23.6247C16.8647 23.6247 16.9188 23.6203 16.9342 23.6188C17.0576 23.6083 17.1719 23.5485 17.2518 23.4527C17.3318 23.3568 17.3708 23.2327 17.3604 23.1077C17.3501 22.9827 17.2911 22.867 17.1965 22.786C17.1018 22.705 16.9793 22.6654 16.8559 22.6759C16.7513 22.6841 14.2949 22.8242 12.8146 19.3485V16.0856C14.3315 18.2493 16.223 18.4205 16.7784 18.4205C16.8647 18.4205 16.9188 18.4168 16.9342 18.4153C17.0552 18.4015 17.166 18.3405 17.2433 18.2452C17.3205 18.1499 17.358 18.0278 17.3478 17.905C17.3376 17.7821 17.2805 17.6681 17.1887 17.5872C17.0968 17.5063 16.9774 17.4649 16.8559 17.4717C16.7513 17.4799 14.2949 17.62 12.8146 14.1451V10.8836C14.3315 13.0465 16.223 13.2185 16.7784 13.2185C16.8647 13.2185 16.9188 13.2141 16.9342 13.2126C17.0576 13.2021 17.1719 13.1423 17.2518 13.0465C17.3318 12.9506 17.3708 12.8265 17.3604 12.7015C17.3501 12.5765 17.2911 12.4607 17.1965 12.3798C17.1018 12.2988 16.9793 12.2592 16.8559 12.2697C16.7513 12.2779 14.2949 12.418 12.8146 8.94232V5.68088C14.3315 7.84455 16.223 8.01577 16.7784 8.01577C16.8647 8.01577 16.9188 8.01577 16.9342 8.01058C17.0552 7.99678 17.166 7.93575 17.2433 7.84045C17.3205 7.74515 17.358 7.6231 17.3478 7.50024C17.3376 7.37737 17.2805 7.26337 17.1887 7.18247C17.0968 7.10157 16.9774 7.06014 16.8559 7.06699C16.7513 7.07514 14.2949 7.21524 12.8146 3.74032V3.72994C12.8171 3.66621 12.8069 3.60263 12.7845 3.54301C12.7622 3.48339 12.7281 3.42896 12.6845 3.38298C12.6409 3.337 12.5885 3.30041 12.5306 3.27543C12.4727 3.25044 12.4104 3.23756 12.3474 3.23756C12.2845 3.23756 12.2222 3.25044 12.1642 3.27543C12.1063 3.30041 12.054 3.337 12.0103 3.38298C11.9667 3.42896 11.9327 3.48339 11.9103 3.54301C11.888 3.60263 11.8777 3.66621 11.8802 3.72994V3.74032C10.4014 7.21005 7.95161 7.07588 7.83966 7.06699C7.72381 7.06893 7.61281 7.11438 7.52816 7.19451C7.44351 7.27465 7.39124 7.38377 7.38149 7.50072C7.37174 7.61767 7.4052 7.73412 7.47539 7.8275C7.54557 7.92088 7.64748 7.98454 7.76136 8.00613C7.76563 8.00613 7.77326 8.00658 7.78406 8.0072C7.81032 8.00872 7.85532 8.01132 7.91649 8.01132C8.47186 8.01132 10.3634 7.83936 11.8802 5.67643V8.93787C10.4014 12.4076 7.95161 12.2734 7.83966 12.2653C7.71623 12.2548 7.59374 12.2943 7.49912 12.3753C7.4045 12.4563 7.34552 12.572 7.33513 12.6971C7.32475 12.8221 7.36383 12.9462 7.44376 13.042C7.52369 13.1379 7.63794 13.1976 7.76136 13.2081C7.76563 13.2081 7.77326 13.2086 7.78406 13.2094C7.81032 13.2111 7.85532 13.2141 7.91649 13.2141C8.47186 13.2141 10.3634 13.0421 11.8802 10.8792V14.1406C10.4014 17.6096 7.95161 17.4762 7.83966 17.4673C7.71813 17.4604 7.59875 17.5019 7.5069 17.5828C7.41504 17.6637 7.35795 17.7777 7.34776 17.9005C7.33756 18.0234 7.37507 18.1454 7.4523 18.2407C7.52953 18.336 7.64041 18.3971 7.76136 18.4109C7.76563 18.4109 7.77326 18.4113 7.78406 18.4119C7.81032 18.4135 7.85532 18.4161 7.91649 18.4161C8.47186 18.4161 10.3634 18.2441 11.8802 16.0812V19.3426C10.4014 22.8123 7.95161 22.6782 7.83966 22.67C7.71623 22.6595 7.59374 22.6991 7.49912 22.7801C7.4045 22.861 7.34552 22.9768 7.33513 23.1018C7.32475 23.2268 7.36383 23.3509 7.44376 23.4468C7.52369 23.5426 7.63794 23.6024 7.76136 23.6129C7.76563 23.6129 7.77326 23.6134 7.78406 23.6141C7.81032 23.6158 7.85532 23.6188 7.91649 23.6188C8.47186 23.6188 10.3634 23.4468 11.8802 21.2832V26.4866H0.46757C0.406167 26.4866 0.345367 26.4989 0.288638 26.5227C0.23191 26.5465 0.180366 26.5814 0.136948 26.6254C0.0935301 26.6694 0.0590892 26.7216 0.0355916 26.779C0.012094 26.8365 0 26.8981 0 26.9603C0 27.0225 0.012094 27.0841 0.0355916 27.1416C0.0590892 27.199 0.0935301 27.2512 0.136948 27.2952C0.180366 27.3392 0.23191 27.3741 0.288638 27.3979C0.345367 27.4217 0.406167 27.4339 0.46757 27.4339H11.8824V30.0846C11.8872 30.2069 11.9385 30.3225 12.0256 30.4074C12.1127 30.4922 12.2288 30.5395 12.3496 30.5395C12.4704 30.5395 12.5865 30.4922 12.6736 30.4074C12.7607 30.3225 12.812 30.2069 12.8168 30.0846V27.4399H25.2817V30.0905C25.2865 30.2128 25.3378 30.3285 25.4249 30.4133C25.512 30.4981 25.6281 30.5455 25.7489 30.5455C25.8697 30.5455 25.9858 30.4981 26.0729 30.4133C26.16 30.3285 26.2113 30.2128 26.2161 30.0905V27.4399H38.7666C38.8906 27.4399 39.0095 27.39 39.0972 27.3011C39.1849 27.2123 39.2341 27.0918 39.2341 26.9662C39.2341 26.8406 39.1849 26.7201 39.0972 26.6313C39.0095 26.5425 38.8906 26.4926 38.7666 26.4926H26.2161V9.85923C26.2163 9.82759 26.2131 9.79603 26.2066 9.76509L36.117 1.09262L46.0252 9.76805C46.0188 9.799 46.0156 9.83056 46.0157 9.86219V26.4926H43.2798C43.2184 26.4926 43.1576 26.5048 43.1009 26.5286C43.0442 26.5524 42.9926 26.5873 42.9492 26.6313C42.9058 26.6753 42.8713 26.7275 42.8478 26.785C42.8243 26.8424 42.8123 26.904 42.8123 26.9662C42.8123 27.0284 42.8243 27.09 42.8478 27.1475C42.8713 27.2049 42.9058 27.2572 42.9492 27.3011C42.9926 27.3451 43.0442 27.38 43.1009 27.4038C43.1576 27.4276 43.2184 27.4399 43.2798 27.4399H46.0179V30.0905C46.0227 30.2128 46.074 30.3285 46.1611 30.4133C46.2482 30.4981 46.3643 30.5455 46.4851 30.5455C46.6059 30.5455 46.722 30.4981 46.8091 30.4133C46.8962 30.3285 46.9475 30.2128 46.9523 30.0905V10.5775Z" fill="white"/>
<path fill-rule="evenodd" clip-rule="evenodd" d="M46.9523 10.5775L50.1368 13.3631C50.2306 13.445 50.3527 13.4859 50.4763 13.4766C50.5999 13.4674 50.7148 13.4088 50.7957 13.3138C50.8766 13.2187 50.9169 13.095 50.9078 12.9698C50.8987 12.8446 50.8409 12.7283 50.747 12.6463L36.4221 0.114189L36.4119 0.106036C36.4023 0.0984826 36.3923 0.0917147 36.3822 0.0848747C36.3785 0.0823174 36.3747 0.07975 36.3709 0.0771277C36.357 0.0674916 36.3468 0.0608205 36.3343 0.0541493C36.3211 0.0470993 36.3074 0.0409099 36.2933 0.0356184C36.29 0.0342824 36.2868 0.0329464 36.2836 0.0316273C36.2727 0.0270917 36.2622 0.0227566 36.2509 0.0193112C36.2401 0.0160331 36.2297 0.0139632 36.2194 0.011914C36.2158 0.011183 36.2121 0.0104547 36.2085 0.00967514C36.2048 0.00889027 36.2008 0.00789763 36.1966 0.00686222C36.1851 0.00398625 36.1722 0.000780297 36.1609 0.000780297H36.1177C36.1031 -0.000260099 36.0884 -0.000260099 36.0738 0.000780297C36.0593 0.00210673 36.0448 0.00458508 36.0307 0.00819266C36.0153 0.0102597 36.0002 0.0134806 35.9853 0.0178287L35.945 0.0333947C35.9301 0.0390555 35.9154 0.045488 35.9011 0.0526669C35.8921 0.0575063 35.8835 0.063126 35.875 0.0686769C35.8717 0.0707778 35.8685 0.0728688 35.8653 0.074904C35.8536 0.0823163 35.8368 0.0941761 35.8236 0.105295C35.8199 0.107336 35.8164 0.109825 35.8133 0.112707L21.4862 12.6463C21.3959 12.7293 21.3411 12.8449 21.3337 12.9683C21.3262 13.0917 21.3667 13.2131 21.4465 13.3067C21.5262 13.4002 21.6389 13.4585 21.7605 13.469C21.8821 13.4796 22.003 13.4415 22.0972 13.3631L25.2817 10.5767V26.4926H12.8146V21.2891C14.3315 23.4528 16.223 23.6247 16.7784 23.6247C16.8647 23.6247 16.9188 23.6203 16.9342 23.6188C17.0576 23.6083 17.1719 23.5485 17.2518 23.4527C17.3318 23.3568 17.3708 23.2327 17.3604 23.1077C17.3501 22.9827 17.2911 22.867 17.1965 22.786C17.1018 22.705 16.9793 22.6654 16.8559 22.6759C16.7513 22.6841 14.2949 22.8242 12.8146 19.3485V16.0856C14.3315 18.2493 16.223 18.4205 16.7784 18.4205C16.8647 18.4205 16.9188 18.4168 16.9342 18.4153C17.0552 18.4015 17.166 18.3405 17.2433 18.2452C17.3205 18.1499 17.358 18.0278 17.3478 17.905C17.3376 17.7821 17.2805 17.6681 17.1887 17.5872C17.0968 17.5063 16.9774 17.4649 16.8559 17.4717C16.7513 17.4799 14.2949 17.62 12.8146 14.1451V10.8836C14.3315 13.0465 16.223 13.2185 16.7784 13.2185C16.8647 13.2185 16.9188 13.2141 16.9342 13.2126C17.0576 13.2021 17.1719 13.1423 17.2518 13.0465C17.3318 12.9506 17.3708 12.8265 17.3604 12.7015C17.3501 12.5765 17.2911 12.4607 17.1965 12.3798C17.1018 12.2988 16.9793 12.2592 16.8559 12.2697C16.7513 12.2779 14.2949 12.418 12.8146 8.94232V5.68088C14.3315 7.84455 16.223 8.01577 16.7784 8.01577C16.8647 8.01577 16.9188 8.01577 16.9342 8.01058C17.0552 7.99678 17.166 7.93575 17.2433 7.84045C17.3205 7.74515 17.358 7.6231 17.3478 7.50024C17.3376 7.37737 17.2805 7.26337 17.1887 7.18247C17.0968 7.10157 16.9774 7.06014 16.8559 7.06699C16.7513 7.07514 14.2949 7.21524 12.8146 3.74032V3.72994C12.8171 3.66621 12.8069 3.60263 12.7845 3.54301C12.7622 3.48339 12.7281 3.42896 12.6845 3.38298C12.6409 3.337 12.5885 3.30041 12.5306 3.27543C12.4727 3.25044 12.4104 3.23756 12.3474 3.23756C12.2845 3.23756 12.2222 3.25044 12.1642 3.27543C12.1063 3.30041 12.054 3.337 12.0103 3.38298C11.9667 3.42896 11.9327 3.48339 11.9103 3.54301C11.888 3.60263 11.8777 3.66621 11.8802 3.72994V3.74032C10.4014 7.21005 7.95161 7.07588 7.83966 7.06699C7.72381 7.06893 7.61281 7.11438 7.52816 7.19451C7.44351 7.27465 7.39124 7.38377 7.38149 7.50072C7.37174 7.61767 7.4052 7.73412 7.47539 7.8275C7.54557 7.92088 7.64748 7.98454 7.76136 8.00613C7.76563 8.00613 7.77326 8.00658 7.78406 8.0072C7.81032 8.00872 7.85532 8.01132 7.91649 8.01132C8.47186 8.01132 10.3634 7.83936 11.8802 5.67643V8.93787C10.4014 12.4076 7.95161 12.2734 7.83966 12.2653C7.71623 12.2548 7.59374 12.2943 7.49912 12.3753C7.4045 12.4563 7.34552 12.572 7.33513 12.6971C7.32475 12.8221 7.36383 12.9462 7.44376 13.042C7.52369 13.1379 7.63794 13.1976 7.76136 13.2081C7.76563 13.2081 7.77326 13.2086 7.78406 13.2094C7.81032 13.2111 7.85532 13.2141 7.91649 13.2141C8.47186 13.2141 10.3634 13.0421 11.8802 10.8792V14.1406C10.4014 17.6096 7.95161 17.4762 7.83966 17.4673C7.71813 17.4604 7.59875 17.5019 7.5069 17.5828C7.41504 17.6637 7.35795 17.7777 7.34776 17.9005C7.33756 18.0234 7.37507 18.1454 7.4523 18.2407C7.52953 18.336 7.64041 18.3971 7.76136 18.4109C7.76563 18.4109 7.77326 18.4113 7.78406 18.4119C7.81032 18.4135 7.85532 18.4161 7.91649 18.4161C8.47186 18.4161 10.3634 18.2441 11.8802 16.0812V19.3426C10.4014 22.8123 7.95161 22.6782 7.83966 22.67C7.71623 22.6595 7.59374 22.6991 7.49912 22.7801C7.4045 22.861 7.34552 22.9768 7.33513 23.1018C7.32475 23.2268 7.36383 23.3509 7.44376 23.4468C7.52369 23.5426 7.63794 23.6024 7.76136 23.6129C7.76563 23.6129 7.77326 23.6134 7.78406 23.6141C7.81032 23.6158 7.85532 23.6188 7.91649 23.6188C8.47186 23.6188 10.3634 23.4468 11.8802 21.2832V26.4866H0.46757C0.406167 26.4866 0.345367 26.4989 0.288638 26.5227C0.23191 26.5465 0.180366 26.5814 0.136948 26.6254C0.0935301 26.6694 0.0590892 26.7216 0.0355916 26.779C0.012094 26.8365 0 26.8981 0 26.9603C0 27.0225 0.012094 27.0841 0.0355916 27.1416C0.0590892 27.199 0.0935301 27.2512 0.136948 27.2952C0.180366 27.3392 0.23191 27.3741 0.288638 27.3979C0.345367 27.4217 0.406167 27.4339 0.46757 27.4339H11.8824V30.0846C11.8872 30.2069 11.9385 30.3225 12.0256 30.4074C12.1127 30.4922 12.2288 30.5395 12.3496 30.5395C12.4704 30.5395 12.5865 30.4922 12.6736 30.4074C12.7607 30.3225 12.812 30.2069 12.8168 30.0846V27.4399H25.2817V30.0905C25.2865 30.2128 25.3378 30.3285 25.4249 30.4133C25.512 30.4981 25.6281 30.5455 25.7489 30.5455C25.8697 30.5455 25.9858 30.4981 26.0729 30.4133C26.16 30.3285 26.2113 30.2128 26.2161 30.0905V27.4399H38.7666C38.8906 27.4399 39.0095 27.39 39.0972 27.3011C39.1849 27.2123 39.2341 27.0918 39.2341 26.9662C39.2341 26.8406 39.1849 26.7201 39.0972 26.6313C39.0095 26.5425 38.8906 26.4926 38.7666 26.4926H26.2161V9.85923C26.2163 9.82759 26.2131 9.79603 26.2066 9.76509L36.117 1.09262L46.0252 9.76805C46.0188 9.799 46.0156 9.83056 46.0157 9.86219V26.4926H43.2798C43.2184 26.4926 43.1576 26.5048 43.1009 26.5286C43.0442 26.5524 42.9926 26.5873 42.9492 26.6313C42.9058 26.6753 42.8713 26.7275 42.8478 26.785C42.8243 26.8424 42.8123 26.904 42.8123 26.9662C42.8123 27.0284 42.8243 27.09 42.8478 27.1475C42.8713 27.2049 42.9058 27.2572 42.9492 27.3011C42.9926 27.3451 43.0442 27.38 43.1009 27.4038C43.1576 27.4276 43.2184 27.4399 43.2798 27.4399H46.0179V30.0905C46.0227 30.2128 46.074 30.3285 46.1611 30.4133C46.2482 30.4981 46.3643 30.5455 46.4851 30.5455C46.6059 30.5455 46.722 30.4981 46.8091 30.4133C46.8962 30.3285 46.9475 30.2128 46.9523 30.0905V10.5775Z" fill="white"/>
<path d="M30.4606 21.6364V20.5849L37.2312 11.5316V11.4347H30.7504V10.1818H38.9772V11.2781L32.3286 20.2866V20.3835H39.2212V21.6364H30.4606Z" fill="white"/>
<path d="M33.0061 21.6364V20.5849L39.7767 11.5316V11.4347H33.2958V10.1818H41.5227V11.2781L34.8741 20.2866V20.3835H41.7667V21.6364H33.0061Z" fill="white"/>
</svg>
