<svg xmlns="http://www.w3.org/2000/svg" xmlns:xlink="http://www.w3.org/1999/xlink" width="134" height="31" fill="none"><defs><path id="a" fill="#fff" fill-rule="evenodd" d="m46.9523 10.5775 3.1845 2.7856c.0938.0819.2159.1228.3395.1135.1236-.0092.2385-.0678.3194-.1628.0809-.0951.1212-.2188.1121-.344-.0091-.1252-.0669-.2415-.1608-.3235L36.4221.114189l-.0102-.008153c-.0096-.0075534-.0196-.0143213-.0297-.0211613-.0037-.0025573-.0075-.0051247-.0113-.007747-.0139-.0096361-.0241-.0163072-.0366-.0229784-.0132-.00705-.0269-.0132394-.041-.0185309-.0033-.001336-.0065-.002672-.0097-.0039911-.0109-.0045356-.0214-.0088707-.0327-.0123161-.0108-.0032781-.0212-.005348-.0315-.0073972-.0036-.000731-.0073-.0014593-.0109-.00223886-.0037-.00078487-.0077-.00177751-.0119-.00281292-.0115-.00287597-.0244-.00608192-.0357-.00608192h-.0432c-.0146-.0010404-.0293-.0010404-.0439 0-.0145.00132643-.029.00380478-.0431.00741236-.0154.00206704-.0305.00528794-.0454.00963604l-.0403.015566c-.0149.0056608-.0296.0120933-.0439.0192722-.009.0048394-.0176.0104591-.0261.01601-.0033.0021009-.0065.0041919-.0097.0062271-.0117.0074123-.0285.0192721-.0417.030391-.0037.002041-.0072.00453-.0103.007412L21.4862 12.6463c-.0903.083-.1451.1986-.1525.322-.0075.1234.033.2448.1128.3384.0797.0935.1924.1518.314.1623.1216.0106.2425-.0275.3367-.1059l3.1845-2.7864v15.9159H12.8146v-5.2035c1.5169 2.1637 3.4084 2.3356 3.9638 2.3356.0863 0 .1404-.0044.1558-.0059.1234-.0105.2377-.0703.3176-.1661.08-.0959.119-.22.1086-.345-.0103-.125-.0693-.2407-.1639-.3217-.0947-.081-.2172-.1206-.3406-.1101-.1046.0082-2.561.1483-4.0413-3.3274v-3.2629c1.5169 2.1637 3.4084 2.3349 3.9638 2.3349.0863 0 .1404-.0037.1558-.0052.121-.0138.2318-.0748.3091-.1701.0772-.0953.1147-.2174.1045-.3402-.0102-.1229-.0673-.2369-.1591-.3178-.0919-.0809-.2113-.1223-.3328-.1155-.1046.0082-2.561.1483-4.0413-3.3266v-3.2615c1.5169 2.1629 3.4084 2.3349 3.9638 2.3349.0863 0 .1404-.0044.1558-.0059.1234-.0105.2377-.0703.3176-.1661.08-.0959.119-.22.1086-.345-.0103-.125-.0693-.2408-.1639-.3217-.0947-.081-.2172-.1206-.3406-.1101-.1046.0082-2.561.1483-4.0413-3.32738V5.68088c1.5169 2.16367 3.4084 2.33489 3.9638 2.33489.0863 0 .1404 0 .1558-.00519.121-.0138.2318-.07483.3091-.17013.0772-.0953.1147-.21735.1045-.34021-.0102-.12287-.0673-.23687-.1591-.31777-.0919-.0809-.2113-.12233-.3328-.11548-.1046.00815-2.561.14825-4.0413-3.32667v-.01038c.0025-.06373-.0077-.12731-.0301-.18693-.0223-.05962-.0564-.11405-.1-.16003-.0436-.04598-.096-.08257-.1539-.10755-.0579-.02499-.1202-.03787-.1832-.03787-.0629 0-.1252.01288-.1832.03787-.0579.02498-.1102.06157-.1539.10755-.0436.04598-.0776.10041-.1.16003-.0223.05962-.0326.1232-.0301.18693v.01038c-1.4788 3.46973-3.92859 3.33556-4.04054 3.32667-.11585.00194-.22685.04739-.3115.12752-.08465.08014-.13692.18926-.14667.30621-.00975.11695.02371.2334.0939.32678.07018.09338.17209.15704.28597.17863.00427 0 .0119.00045.0227.00107.02626.00152.07126.00412.13243.00412.55537 0 2.44691-.17196 3.96371-2.33489v3.26144c-1.4788 3.46973-3.92859 3.33553-4.04054 3.32743-.12343-.0105-.24592.029-.34054.11-.09462.081-.1536.1967-.16399.3218-.01038.125.0287.2491.10863.3449.07993.0959.19418.1556.3176.1661.00427 0 .0119.0005.0227.0013.02626.0017.07126.0047.13243.0047.55537 0 2.44691-.172 3.96371-2.3349v3.2614c-1.4788 3.469-3.92859 3.3356-4.04054 3.3267-.12153-.0069-.24091.0346-.33276.1155-.09186.0809-.14895.1949-.15914.3177-.0102.1229.02731.2449.10454.3402s.18811.1564.30906.1702c.00427 0 .0119.0004.0227.001.02626.0016.07126.0042.13243.0042.55537 0 2.44691-.172 3.96371-2.3349v3.2614c-1.4788 3.4697-3.92859 3.3356-4.04054 3.3274-.12343-.0105-.24592.0291-.34054.1101-.09462.0809-.1536.1967-.16399.3217-.01038.125.0287.2491.10863.345.07993.0958.19418.1556.3176.1661.00427 0 .0119.0005.0227.0012.02626.0017.07126.0047.13243.0047.55537 0 2.44691-.172 3.96371-2.3356v5.2034H.46757c-.061403 0-.122203.0123-.178932.0361-.056728.0238-.108272.0587-.15169.1027-.0434179.044-.0778588.0962-.1013564.1536C.012094 26.8365 0 26.8981 0 26.9603c0 .0622.012094.1238.0355916.1813.0234976.0574.0579385.1096.1013564.1536.043418.044.094962.0789.15169.1027.056729.0238.117529.036.178932.036H11.8824v2.6507c.0048.1223.0561.2379.1432.3228.0871.0848.2032.1321.324.1321.1208 0 .2369-.0473.324-.1321.0871-.0849.1384-.2005.1432-.3228v-2.6447h12.4649v2.6506c.0048.1223.0561.238.1432.3228.0871.0848.2032.1322.324.1322.1208 0 .2369-.0474.324-.1322.0871-.0848.1384-.2005.1432-.3228v-2.6506h12.5505c.124 0 .2429-.0499.3306-.1388.0877-.0888.1369-.2093.1369-.3349 0-.1256-.0492-.2461-.1369-.3349-.0877-.0888-.2066-.1387-.3306-.1387H26.2161V9.85923c.0002-.03164-.003-.0632-.0095-.09414l9.9104-8.67247 9.9082 8.67543c-.0064.03095-.0096.06251-.0095.09414V26.4926h-2.7359c-.0614 0-.1222.0122-.1789.036-.0567.0238-.1083.0587-.1517.1027-.0434.044-.0779.0962-.1014.1537-.0235.0574-.0355.119-.0355.1812 0 .0622.012.1238.0355.1813.0235.0574.058.1097.1014.1536.0434.044.095.0789.1517.1027s.1175.0361.1789.0361h2.7381v2.6506c.0048.1223.0561.238.1432.3228.0871.0848.2032.1322.324.1322.1208 0 .2369-.0474.324-.1322.0871-.0848.1384-.2005.1432-.3228v-19.513Z" clip-rule="evenodd"/></defs><path fill="#fff" d="M55.9098 26.9091V13.3033h2.8766v5.6137h5.8397v-5.6137h2.8699v13.6058h-2.8699v-5.6204h-5.8397v5.6204h-2.8766Zm18.5154.1993c-1.032 0-1.9244-.2192-2.6773-.6577-.7485-.4429-1.3265-1.0585-1.734-1.8469-.4075-.7928-.6112-1.7118-.6112-2.757 0-1.0541.2037-1.9754.6112-2.7637.4075-.7928.9855-1.4084 1.734-1.8469.7529-.4429 1.6453-.6643 2.6773-.6643 1.0319 0 1.9222.2214 2.6707.6643.7529.4385 1.3331 1.0541 1.7405 1.8469.4075.7883.6113 1.7096.6113 2.7637 0 1.0452-.2038 1.9642-.6113 2.757-.4074.7884-.9876 1.404-1.7405 1.8469-.7485.4385-1.6388.6577-2.6707.6577Zm.0133-2.1923c.4694 0 .8614-.1329 1.1759-.3986.3144-.2702.5514-.6378.7108-1.1029.1639-.465.2458-.9943.2458-1.5878 0-.5934-.0819-1.1227-.2458-1.5877-.1594-.4651-.3964-.8327-.7108-1.1029-.3145-.2701-.7065-.4052-1.1759-.4052-.4739 0-.8725.1351-1.1959.4052-.3188.2702-.5602.6378-.7241 1.1029-.1594.465-.2392.9943-.2392 1.5877 0 .5935.0798 1.1228.2392 1.5878.1639.4651.4053.8327.7241 1.1029.3234.2657.722.3986 1.1959.3986Zm9.6795-11.6128v13.6058h-2.8301V13.3033h2.8301Zm2.2671 13.6058V16.7047h2.8301v10.2044h-2.8301Zm1.4217-11.5198c-.4207 0-.7817-.1395-1.0829-.4185-.2967-.2835-.4451-.6223-.4451-1.0165 0-.3897.1484-.7241.4451-1.0031.3012-.2835.6622-.4252 1.0829-.4252.4208 0 .7795.1417 1.0762.4252.3012.279.4518.6134.4518 1.0031 0 .3942-.1506.733-.4518 1.0165-.2967.279-.6554.4185-1.0762.4185Zm7.4357 11.6859c-.775 0-1.477-.1993-2.106-.5979-.6245-.4031-1.1205-.9943-1.4881-1.7738-.3632-.784-.5448-1.7451-.5448-2.8833 0-1.1693.1883-2.1414.5647-2.9165.3765-.7795.877-1.3619 1.5015-1.7472.6289-.3898 1.3176-.5846 2.0661-.5846.5713 0 1.0474.0974 1.4283.2923.3853.1904.6954.4296.9301.7175.2392.2834.4208.5624.5448.837h.0863v-5.1154h2.8236v13.6058h-2.7903v-1.6343h-.1196c-.1329.2835-.3211.5647-.5647.8437-.2392.2746-.5514.5027-.9368.6843-.3808.1816-.8459.2724-1.3951.2724Zm.8969-2.2521c.4562 0 .8415-.1241 1.156-.3721.3188-.2524.5624-.6045.7307-1.0563.1728-.4518.2591-.981.2591-1.5878 0-.6068-.0841-1.1338-.2524-1.5811-.1683-.4474-.4119-.7928-.7308-1.0364-.3189-.2436-.7064-.3654-1.1626-.3654-.4651 0-.857.1262-1.1759.3787-.3189.2524-.5603.6023-.7241 1.0496-.1639.4474-.2459.9656-.2459 1.5546 0 .5935.082 1.1183.2459 1.5745.1683.4518.4096.8061.7241 1.063.3189.2524.7108.3787 1.1759.3787Zm10.1466 2.2787c-.651 0-1.232-.113-1.741-.3389-.509-.2303-.912-.5691-1.209-1.0164-.292-.4518-.439-1.0142-.439-1.6874 0-.567.105-1.0431.313-1.4284.208-.3853.491-.6953.85-.9301.359-.2347.766-.4119 1.222-.5315.461-.1195.944-.2037 1.449-.2524.593-.062 1.072-.1196 1.435-.1727.363-.0576.626-.1418.79-.2525.164-.1107.246-.2746.246-.4916V19.96c0-.4207-.133-.7463-.398-.9766-.262-.2303-.634-.3454-1.117-.3454-.509 0-.914.1129-1.215.3388-.302.2214-.501.5005-.598.8371l-2.618-.2126c.133-.6201.394-1.156.784-1.6077.39-.4562.893-.8061 1.508-1.0497.62-.248 1.338-.372 2.153-.372.567 0 1.109.0664 1.627.1993.523.1328.986.3388 1.389.6178.407.279.728.6378.963 1.0762.235.4341.352.9545.352 1.5613v6.8826h-2.684V25.494h-.079c-.164.3189-.384.6002-.658.8438-.275.2391-.605.4274-.99.5647-.385.1328-.83.1993-1.335.1993Zm.81-1.9532c.416 0 .784-.082 1.103-.2458.319-.1683.569-.3942.751-.6777.181-.2834.272-.6045.272-.9633v-1.0829c-.089.0576-.21.1108-.365.1595-.151.0443-.321.0864-.512.1262-.19.0355-.381.0687-.571.0997-.191.0265-.363.0509-.518.073-.333.0488-.623.1263-.871.2326s-.44.2502-.578.4318c-.137.1772-.206.3986-.206.6643 0 .3854.14.6799.419.8836.283.1993.642.299 1.076.299Zm7.079 1.7605v-1.6874l4.996-6.1851v-.0731h-4.823v-2.2588h8.231v1.8403l-4.691 6.0322v.0731h4.863v2.2588h-8.576Zm15.099.1993c-1.05 0-1.953-.2126-2.711-.6378-.753-.4296-1.333-1.0363-1.74-1.8203-.408-.7883-.612-1.7206-.612-2.7969 0-1.0497.204-1.9709.612-2.7637.407-.7928.981-1.4106 1.72-1.8535.744-.4429 1.617-.6643 2.618-.6643.673 0 1.3.1085 1.88.3255.585.2126 1.094.5337 1.528.9633.438.4296.779.9699 1.023 1.621.244.6466.365 1.404.365 2.2721v.7773h-8.616v-1.7539h5.952c0-.4075-.088-.7685-.265-1.0829-.178-.3145-.423-.5603-.738-.7374-.31-.1816-.671-.2724-1.083-.2724-.429 0-.81.0996-1.142.2989-.328.1949-.585.4584-.771.7906-.186.3278-.281.6931-.286 1.0962v1.6675c0 .5049.093.9412.279 1.3088.191.3676.459.651.804.8503.346.1993.755.299 1.229.299.315 0 .603-.0443.864-.1329.261-.0886.485-.2214.671-.3986.186-.1772.328-.3942.425-.6511l2.618.1728c-.133.6289-.406 1.1781-.818 1.6476-.407.465-.934.8282-1.581 1.0895-.642.2569-1.384.3853-2.225.3853Z"/><use xlink:href="#a" fill-rule="evenodd" clip-rule="evenodd"/><use xlink:href="#a" fill-rule="evenodd" clip-rule="evenodd"/><path fill="#fff" d="M30.4606 21.6364v-1.0515l6.7706-9.0533v-.0969h-6.4808v-1.2529h8.2268v1.0963l-6.6486 9.0085v.0969h6.8926v1.2529h-8.7606Z"/><path fill="#fff" d="M33.0061 21.6364v-1.0515l6.7706-9.0533v-.0969h-6.4809v-1.2529h8.2269v1.0963l-6.6486 9.0085v.0969h6.8926v1.2529h-8.7606Z"/></svg>