<svg xmlns="http://www.w3.org/2000/svg" xmlns:xlink="http://www.w3.org/1999/xlink" width="152" height="31" fill="none"><defs><path id="b" fill-rule="evenodd" d="M47.0982 27.5744v-16.945l3.1943 2.7992c.0942.0824.2167.1234.3406.1141.124-.0093.2392-.0681.3204-.1637.0812-.0955.1216-.2198.1125-.3456-.0092-.1258-.0672-.2427-.1613-.3251L36.5353.114749 36.525.106556c-.0096-.0075905-.0196-.0143915-.0297-.0212651-.0038-.0025698-.0076-.0051498-.0114-.007785-.0139-.0096833-.0242-.0163872-.0367-.023091-.0133-.0070846-.027-.0133044-.0411-.0186218-.0033-.0013426-.0065-.0026852-.0097-.0040107-.011-.0045578-.0215-.0089142-.0329-.0123765-.0108-.0032941-.0212-.0053743-.0315-.0074335-.0037-.0007345-.0074-.0014664-.011-.00224982-.0037-.00078872-.0077-.00178622-.0119-.00282671-.0116-.00289008-.0245-.00611175-.0358-.00611175h-.0434c-.0146-.0010455-.0293-.0010455-.044 0-.0146.00133294-.0291.00382344-.0433.00744872-.0154.00207716-.0306.00531386-.0455.00968336l-.0404.0156423c-.015.0056885-.0297.0121525-.044.0193666-.0091.0048632-.0177.0105105-.0263.0160886-.0032.0021111-.0065.0042124-.0097.0062576-.0117.0074487-.0286.0193666-.0418.0305397-.0037.002051-.0072.004552-.0103.007449L21.553 12.7083c-.0907.0834-.1456.1996-.1531.3236-.0074.124.0332.246.1132.34.08.0941.1931.1526.315.1632.122.0106.2432-.0276.3378-.1065l3.1943-2.8v15.9939H12.8544v-5.229c1.5216 2.1743 3.419 2.3471 3.9761 2.3471.0866 0 .1409-.0045.1563-.006.1238-.0105.2384-.0706.3186-.1669s.1194-.221.109-.3467c-.0104-.1256-.0696-.2419-.1645-.3233-.0949-.0813-.2178-.1211-.3416-.1106-.105.0082-2.569.149-4.0539-3.3437v-3.2789c1.5216 2.1743 3.419 2.3463 3.9761 2.3463.0866 0 .1409-.0037.1563-.0052.1214-.0138.2326-.0752.31-.1709.0775-.0958.1151-.2185.1049-.3419-.0102-.1235-.0675-.2381-.1596-.3194-.0922-.0812-.2119-.1229-.3338-.116-.105.0082-2.569.149-4.0539-3.343V10.937c1.5216 2.1735 3.419 2.3463 3.9761 2.3463.0866 0 .1409-.0044.1563-.0059.1238-.0106.2384-.0706.3186-.167.0802-.0963.1194-.221.109-.3466-.0104-.1257-.0696-.242-.1645-.3233-.0949-.0814-.2178-.1212-.3416-.1106-.105.0082-2.569.149-4.0539-3.34373V5.70873c1.5216 2.17428 3.419 2.34635 3.9761 2.34635.0866 0 .1409 0 .1563-.00522.1214-.01386.2326-.07519.31-.17096.0775-.09577.1151-.21842.1049-.34189-.0102-.12347-.0675-.23802-.1596-.31932-.0922-.0813-.2119-.12293-.3338-.11605-.105.0082-2.569.14898-4.0539-3.34298v-.01043c.0025-.06404-.0077-.12793-.0302-.18784-.0224-.05992-.0565-.11462-.1003-.16082-.0437-.04621-.0962-.08297-.1544-.10808-.0581-.02511-.1206-.03806-.1837-.03806-.0632 0-.1257.01295-.1838.03806-.0581.02511-.1106.06187-.1544.10808-.0437.0462-.0778.1009-.1003.16082-.0224.05991-.0327.1238-.0302.18784v.01043C10.4337 7.2454 7.97631 7.11058 7.86401 7.10164c-.1162.00196-.22755.04762-.31246.12815-.08492.08053-.13735.19018-.14713.30771-.00978.11752.02379.23454.09419.32838.0704.09384.17263.15781.28686.17951.00429 0 .01194.00045.02278.00108.02633.00152.07148.00414.13283.00414.5571 0 2.45452-.17281 3.97602-2.34635V8.9817c-1.4834 3.4867-3.94079 3.3519-4.05309 3.3437-.12381-.0105-.24668.0292-.34159.1106s-.15408.1977-.1645.3233c-.01041.1257.02878.2504.10896.3467.08019.0963.19479.1563.31859.1669.00429 0 .01194.0005.02278.0012.02633.0018.07148.0048.13283.0048.5571 0 2.45452-.1728 3.97602-2.3464v3.2774c-1.4834 3.486-3.94079 3.352-4.05309 3.343-.12191-.0068-.24165.0348-.33379.1161-.09214.0813-.14941.1958-.15963.3193-.01023.1235.02739.2461.10486.3419.07748.0958.1887.1571.31002.171.00429 0 .01194.0004.02278.001.02633.0016.07148.0042.13283.0042.5571 0 2.45452-.1728 3.97602-2.3464v3.2775c-1.4834 3.4867-3.94079 3.3519-4.05309 3.3437-.12381-.0106-.24668.0292-.34159.1106-.09491.0813-.15408.1976-.1645.3233-.01041.1256.02878.2503.10896.3466.08019.0963.19479.1564.31859.167.00429 0 .01194.0005.02278.0012.02633.0017.07148.0047.13283.0047.5571 0 2.45452-.1728 3.97602-2.3471v5.229H.469022c-.061593 0-.122582.0123-.179487.0363-.056904.0239-.108609.0589-.152162.1031-.0435523.0442-.0781002.0967-.1016708.1545C.0121316 26.9681 0 27.03 0 27.0925c0 .0625.0121316.1244.0357022.1821.0235706.0578.0581185.1103.1016708.1545.043553.0442.095258.0792.152162.1031.056905.024.117894.0363.179487.0363H11.9193v2.6636c.0048.1229.0563.2391.1437.3244.0873.0852.2038.1328.325.1328s.2376-.0476.325-.1328c.0874-.0853.1388-.2015.1436-.3244v-2.6577h12.5036v2.6637c.0048.1229.0563.2391.1437.3243.0873.0852.2038.1328.325.1328s.2376-.0476.325-.1328.1388-.2014.1436-.3243v-2.6637H38.887c.1244 0 .2437-.0501.3317-.1394.0879-.0892.1373-.2103.1373-.3365 0-.1263-.0494-.2473-.1373-.3366-.088-.0893-.2073-.1394-.3317-.1394H26.2975V9.90757c.0003-.03179-.0029-.06351-.0095-.0946l9.9412-8.71499 9.939 8.71797c-.0065.0311-.0097.06282-.0095.0946V26.6225h-2.7444c-.0616 0-.1226.0123-.1795.0362-.0569.0239-.1086.059-.1522.1032-.0435.0442-.0781.0967-.1016.1544-.0236.0578-.0357.1197-.0357.1822s.0121.1244.0357.1821c.0235.0578.0581.1102.1016.1544.0436.0442.0953.0793.1522.1032.0569.0239.1179.0362.1795.0362h2.7466v2.6637c.0048.1229.0563.2391.1436.3243.0874.0852.2039.1328.325.1328.1212 0 .2377-.0476.3251-.1328.0873-.0852.1388-.2014.1436-.3243v-2.6637Z" clip-rule="evenodd"/></defs><path fill="#fff" d="M59.6653 26.9446v-16h3.3829v6.6015h6.8671v-6.6015h3.375v16h-3.375v-6.6094h-6.8671v6.6094h-3.3829Zm21.7735.2344c-1.2136 0-2.263-.2579-3.1485-.7735-.8802-.5208-1.5599-1.2448-2.039-2.1719-.4792-.9322-.7188-2.013-.7188-3.2421 0-1.2396.2396-2.323.7188-3.25.4791-.9323 1.1588-1.6563 2.039-2.1719.8855-.5209 1.9349-.7813 3.1485-.7813 1.2135 0 2.2604.2604 3.1406.7813.8854.5156 1.5677 1.2396 2.0469 2.1719.4791.927.7187 2.0104.7187 3.25 0 1.2291-.2396 2.3099-.7187 3.2421-.4792.9271-1.1615 1.6511-2.0469 2.1719-.8802.5156-1.9271.7735-3.1406.7735Zm.0156-2.5782c.5521 0 1.013-.1562 1.3828-.4687.3698-.3177.6485-.75.836-1.2969.1927-.5469.289-1.1693.289-1.8672s-.0963-1.3203-.289-1.8672c-.1875-.5468-.4662-.9791-.836-1.2968-.3698-.3178-.8307-.4766-1.3828-.4766-.5573 0-1.026.1588-1.4062.4766-.375.3177-.6589.75-.8516 1.2968-.1875.5469-.2813 1.1693-.2813 1.8672s.0938 1.3203.2813 1.8672c.1927.5469.4766.9792.8516 1.2969.3802.3125.8489.4687 1.4062.4687Zm11.3828-13.6562v16h-3.3281v-16h3.3281Zm2.666 16v-12h3.3282v12h-3.3282Zm1.6719-13.5469c-.4948 0-.9193-.1641-1.2734-.4922-.349-.3333-.5235-.7318-.5235-1.1953 0-.4583.1745-.8516.5235-1.1797.3541-.3333.7786-.5 1.2734-.5.4948 0 .9167.1667 1.2656.5.3542.3281.5313.7214.5313 1.1797 0 .4635-.1771.862-.5313 1.1953-.3489.3281-.7708.4922-1.2656.4922Zm8.7439 13.7422c-.911 0-1.737-.2344-2.476-.7031-.735-.474-1.318-1.1693-1.75-2.086-.427-.9218-.641-2.0521-.641-3.3906 0-1.375.221-2.5182.664-3.4297.443-.9166 1.031-1.6015 1.766-2.0547.739-.4583 1.549-.6875 2.429-.6875.672 0 1.232.1146 1.68.3438.453.2239.818.5052 1.094.8437.281.3334.495.6615.641.9844h.101v-6.0156h3.32v16h-3.281v-1.9219h-.14c-.157.3333-.378.6641-.665.9922-.281.3229-.648.5911-1.101.8047-.448.2135-.995.3203-1.641.3203Zm1.055-2.6484c.536 0 .99-.1459 1.359-.4375.375-.2969.662-.711.86-1.2422.203-.5313.304-1.1537.304-1.8672 0-.7136-.099-1.3334-.296-1.8594-.198-.526-.485-.9323-.86-1.2187-.375-.2865-.831-.4297-1.367-.4297-.547 0-1.008.1484-1.383.4453-.375.2969-.659.7083-.851 1.2344-.193.526-.289 1.1354-.289 1.8281 0 .6979.096 1.3151.289 1.8515.197.5313.481.948.851 1.25.375.2969.836.4454 1.383.4454Zm11.932 2.6796c-.766 0-1.448-.1328-2.047-.3984-.599-.2708-1.073-.6693-1.422-1.1953-.344-.5313-.516-1.1927-.516-1.9844 0-.6666.123-1.2265.367-1.6797.245-.4531.579-.8177 1-1.0937.422-.2761.901-.4844 1.438-.625.542-.1406 1.109-.2396 1.703-.2969.698-.0729 1.26-.1406 1.688-.2031.427-.0677.736-.1667.929-.2969.193-.1302.289-.3229.289-.5781v-.0469c0-.4948-.156-.8776-.468-1.1484-.308-.2709-.745-.4063-1.313-.4063-.599 0-1.076.1328-1.43.3985-.354.2604-.588.5885-.703.9843l-3.078-.25c.156-.7291.464-1.3593.922-1.8906.458-.5365 1.049-.9479 1.773-1.2344.73-.2916 1.573-.4375 2.532-.4375.666 0 1.304.0782 1.914.2344.614.1563 1.159.3984 1.633.7266.479.3281.856.75 1.132 1.2656.276.5104.414 1.1224.414 1.8359v8.0938h-3.156v-1.6641h-.094c-.192.375-.45.7057-.773.9922-.323.2813-.711.5026-1.164.6641-.453.1562-.977.2343-1.57.2343Zm.953-2.2968c.489 0 .922-.0964 1.297-.2891.375-.1979.669-.4635.882-.7969.214-.3333.321-.7109.321-1.1328v-1.2734c-.104.0677-.248.1302-.43.1875-.177.0521-.378.1015-.602.1484-.224.0417-.447.0807-.671.1172-.224.0313-.428.0599-.61.0859-.39.0573-.732.1485-1.023.2735-.292.125-.518.2943-.68.5078-.161.2083-.242.4687-.242.7812 0 .4532.164.7995.492 1.0391.333.2344.755.3516 1.266.3516Zm8.324 2.0703v-1.9844l5.875-7.2734v-.086h-5.672v-2.6562h9.68v2.164l-5.516 7.0938v.0859h5.719v2.6563h-10.086Zm17.756.2344c-1.235 0-2.297-.25-3.188-.75-.885-.5053-1.567-1.2188-2.047-2.1407-.479-.9271-.718-2.0234-.718-3.289 0-1.2344.239-2.3177.718-3.25.48-.9323 1.154-1.6589 2.024-2.1797.875-.5209 1.901-.7813 3.078-.7813.792 0 1.529.1276 2.211.3828.687.25 1.286.6276 1.797 1.1329.515.5052.916 1.1406 1.203 1.9062.286.7604.43 1.651.43 2.6719v.914h-10.133v-2.0625h7c0-.4791-.104-.9036-.313-1.2734-.208-.3698-.497-.6588-.867-.8672-.364-.2135-.789-.3203-1.273-.3203-.506 0-.953.1172-1.344.3516-.386.2291-.688.539-.906.9297-.219.3854-.331.8151-.336 1.289v1.961c0 .5937.109 1.1067.328 1.539.224.4323.539.7656.945 1 .406.2344.888.3516 1.445.3516.37 0 .709-.0521 1.016-.1563.307-.1041.57-.2604.789-.4687.219-.2084.386-.4636.5-.7656l3.078.2031c-.156.7396-.476 1.3854-.961 1.9375-.479.5469-1.099.9739-1.859 1.2812-.755.3021-1.628.4532-2.617.4532Z"/><g fill="#fff" clip-path="url(#a)"><use xlink:href="#b" fill-rule="evenodd" clip-rule="evenodd"/><use xlink:href="#b" fill-rule="evenodd" clip-rule="evenodd"/><path d="M30.4606 21.6364v-1.0515l6.7706-9.0532v-.097h-6.4808v-1.2528h8.2269v1.0962l-6.6487 9.0085v.097h6.8926v1.2528h-8.7606Z"/><path d="M33.0061 21.6364v-1.0515l6.7706-9.0532v-.097h-6.4809v-1.2528h8.2269v1.0962l-6.6486 9.0085v.097h6.8926v1.2528h-8.7606Z"/></g><defs><clipPath id="a"><path fill="#fff" d="M0 0h52v31H0z"/></clipPath></defs></svg>